<svg id="Capa_1" enable-background="new 0 0 511.956 511.956" height="512" viewBox="0 0 511.956 511.956" width="512" xmlns="http://www.w3.org/2000/svg" fill="#4e5461"><g><g><path d="m334.616 129.054c12.913 0 23.38-10.468 23.38-23.38v-36.919c0-12.912-10.468-23.38-23.38-23.38h-151.475c-12.912 0-23.38 10.468-23.38 23.38v36.918c0 12.912 10.468 23.38 23.38 23.38h151.475z" fill="#4e5461"/></g><g><path d="m334.616 466.581h-151.475c-12.913 0-23.38-10.468-23.38-23.38v-36.918c0-12.913 10.468-23.38 23.38-23.38h151.475c12.913 0 23.38 10.468 23.38 23.38v36.918c0 12.912-10.467 23.38-23.38 23.38z" fill="#4e5461"/></g><g><path d="m25.89 219.541h76.933v76.932h-76.933z" fill="#4e5461" transform="matrix(.707 .707 -.707 .707 201.288 30.062)"/></g><g><path d="m403.703 258.008c0-27.132 21.995-49.127 49.127-49.127 27.132 0 49.126 21.995 49.126 49.127 0 27.132-21.995 49.127-49.127 49.126-27.132.001-49.126-21.994-49.126-49.126z" fill="#4e5461"/></g><g><path d="m263.426 120.738c-4.728-3.155-11.37-1.613-14.206 3.315-2.586 4.494-1.221 10.439 3.106 13.315 4.605 3.061 11.001 1.71 13.973-2.947 2.866-4.491 1.616-10.741-2.873-13.683z"/><path d="m511.956 258.008c0-29.193-21.272-53.497-49.127-58.264v-94.071c0-15.692-12.767-28.459-28.459-28.459h-66.374v-8.459c0-18.405-14.975-33.38-33.38-33.38h-151.475c-18.405 0-33.38 14.975-33.38 33.38v8.459h-66.946c-15.692 0-28.459 12.767-28.459 28.459v93.792l-51.471 51.47c-3.846 3.848-3.847 10.294 0 14.143l51.471 51.471v89.734c0 15.692 12.767 28.459 28.459 28.459h66.946v8.459c0 18.405 14.975 33.38 33.38 33.38h151.476c18.405 0 33.38-14.975 33.38-33.38v-8.459h66.374c15.692 0 28.459-12.767 28.459-28.459v-90.01c27.854-4.768 49.126-29.071 49.126-58.265zm-447.6-40.258 40.258 40.258-40.258 40.257-40.257-40.258zm283.64 225.451c0 7.378-6.002 13.38-13.38 13.38h-151.475c-7.378 0-13.38-6.002-13.38-13.38v-36.918c0-7.378 6.002-13.38 13.38-13.38h151.476c7.378 0 13.38 6.002 13.38 13.38v36.918zm86.374-28.459h-66.374v-8.459c0-18.405-14.975-33.38-33.38-33.38h-151.475c-18.405 0-33.38 14.975-33.38 33.38v8.459h-66.946c-4.664 0-8.459-3.795-8.459-8.459v-89.734l51.472-51.47c3.847-3.847 3.846-10.294 0-14.143l-51.472-51.471v-93.792c0-4.664 3.795-8.459 8.459-8.459h66.946v8.459c0 18.405 14.975 33.38 33.38 33.38h30.805c5.522 0 10-4.478 10-10s-4.478-10-10-10h-30.805c-7.378 0-13.38-6.002-13.38-13.38v-36.917c0-7.378 6.002-13.38 13.38-13.38h151.476c7.378 0 13.38 6.002 13.38 13.38v36.918c0 7.378-6.002 13.38-13.38 13.38h-32.729c-5.522 0-10 4.478-10 10s4.478 10 10 10h32.729c18.405 0 33.38-14.975 33.38-33.38v-8.459h66.374c4.664 0 8.459 3.795 8.459 8.459v94.071c-27.854 4.768-49.126 29.071-49.126 58.264-.002 28.416 21.063 53.517 49.126 58.272v90.002c-.001 4.664-3.796 8.459-8.46 8.459zm18.459-117.607c-21.328 0-39.126-17.799-39.126-39.127 0-21.574 17.553-39.127 39.127-39.127s39.126 17.553 39.126 39.127-17.552 39.127-39.127 39.127z"/></g></g></svg>