<?xml version="1.0" standalone="no"?>
<!DOCTYPE svg PUBLIC "-//W3C//DTD SVG 20010904//EN"
 "http://www.w3.org/TR/2001/REC-SVG-20010904/DTD/svg10.dtd">
<svg version="1.0" xmlns="http://www.w3.org/2000/svg"
 width="400.000000pt" height="400.000000pt" viewBox="0 0 400.000000 400.000000"
 preserveAspectRatio="xMidYMid meet" fill="#4e5461">

<g transform="translate(0.000000,400.000000) scale(0.100000,-0.100000)"
fill="#4e5461" stroke="none">
<path d="M1930 2884 c-121 -21 -155 -30 -222 -55 -178 -69 -347 -222 -431
-390 -68 -135 -89 -226 -90 -379 -1 -185 38 -314 139 -466 144 -218 411 -364
665 -364 133 0 219 80 219 203 0 121 -75 191 -221 207 -98 10 -153 28 -212 69
-330 226 -194 735 205 768 176 15 352 -96 420 -264 23 -57 23 -63 26 -520 l3
-463 204 0 205 0 0 448 c-1 478 -5 535 -52 663 -39 107 -96 197 -177 282 -119
125 -240 197 -399 238 -73 18 -233 32 -282 23z"/>
</g>
</svg>
