<?xml version="1.0" standalone="no"?>
<!DOCTYPE svg PUBLIC "-//W3C//DTD SVG 20010904//EN"
 "http://www.w3.org/TR/2001/REC-SVG-20010904/DTD/svg10.dtd">
<svg version="1.0" xmlns="http://www.w3.org/2000/svg"
 width="1200.000000pt" height="1200.000000pt" viewBox="0 0 1200.000000 1200.000000"
 preserveAspectRatio="xMidYMid meet">

<g transform="translate(0.000000,1200.000000) scale(0.100000,-0.100000)"
fill="#4e5461" stroke="none">
<path d="M5846 11960 c-164 -21 -328 -71 -476 -145 -47 -23 -618 -359 -1270
-747 -652 -387 -1521 -904 -1932 -1148 -411 -244 -777 -466 -815 -494 -97 -71
-237 -217 -310 -319 -120 -170 -205 -364 -255 -582 l-22 -100 -4 -2410 c-3
-2653 -6 -2508 58 -2724 96 -323 298 -613 554 -796 54 -38 3902 -2327 3984
-2369 64 -33 209 -87 285 -107 73 -18 105 -20 391 -17 l311 3 107 37 c147 51
200 79 628 333 2579 1529 3496 2075 3550 2113 93 66 251 223 326 322 120 160
228 403 268 601 9 42 20 128 26 190 13 155 13 4583 0 4737 -24 274 -106 508
-257 736 -84 127 -264 309 -383 388 -136 91 -3854 2297 -3966 2354 -114 57
-256 105 -384 129 -102 19 -318 27 -414 15z m399 -284 c95 -21 199 -57 282
-99 60 -30 3524 -2081 3838 -2272 201 -123 340 -259 446 -437 72 -122 137
-291 154 -398 l6 -45 -29 50 c-85 144 -254 222 -424 195 -82 -12 -143 -32
-223 -73 -70 -35 -3704 -2278 -3845 -2373 -262 -176 -430 -371 -510 -592 -64
-177 -61 -23 -57 -2612 2 -2241 3 -2358 21 -2415 47 -158 135 -275 246 -327
l54 -26 -49 -6 c-28 -4 -68 -9 -91 -12 -64 -8 -251 14 -349 40 -49 14 -126 40
-170 59 -82 35 -3899 2294 -4015 2376 -266 188 -461 527 -500 869 -8 68 -10
796 -8 2452 l3 2355 22 90 c40 170 99 310 191 450 58 87 194 230 281 294 86
63 3913 2334 4005 2377 87 40 191 71 293 90 98 17 331 12 428 -10z m1323
-6318 c5 -7 12 -88 14 -180 2 -92 6 -170 10 -173 3 -3 39 4 79 16 51 16 100
23 159 24 103 0 136 -8 143 -36 7 -24 -67 -328 -90 -372 -19 -38 -44 -45 -113
-34 -119 19 -302 -44 -410 -141 -100 -90 -160 -228 -145 -335 17 -129 74 -159
330 -172 148 -8 230 -26 307 -67 94 -50 151 -130 185 -261 22 -84 22 -295 -1
-400 -53 -244 -174 -465 -353 -645 l-92 -93 5 -172 c7 -215 10 -210 -143 -295
-60 -34 -117 -62 -126 -62 -30 0 -37 37 -37 199 0 89 -2 161 -3 161 -2 0 -28
-8 -58 -18 -90 -31 -186 -45 -271 -39 -85 6 -128 25 -128 57 0 11 18 96 41
190 36 152 44 172 71 195 23 19 35 23 56 17 15 -4 77 -7 137 -6 99 0 118 3
190 32 213 85 355 273 355 471 0 88 -13 131 -52 168 -54 52 -98 64 -263 75
-169 10 -253 26 -325 63 -143 72 -211 232 -196 460 18 289 151 565 379 782
l65 63 -5 167 c-6 217 -7 214 142 305 61 37 115 68 121 68 6 0 16 -6 22 -12z
m2000 -2217 c2 -95 -1 -148 -9 -157 -24 -29 -991 -606 -1000 -597 -5 5 -8 73
-7 159 l3 149 495 297 c272 163 500 296 505 294 6 -1 11 -61 13 -145z"/>
</g>
</svg>
