<svg fill="#4e5461" id="Capa_1" enable-background="new 0 0 508.683 508.683" height="512" viewBox="0 0 508.683 508.683" width="512" xmlns="http://www.w3.org/2000/svg"><g id="XMLID_891_"><path id="XMLID_959_" d="m119.191 315.348-27.91-16.114-15 25.98 27.884 16.099c-1.915 8.041-1.918 16.271 0 24.322l-27.884 16.099 15 25.98 27.91-16.114c5.894 5.573 13.068 9.799 21.036 12.179v32.195h30v-32.195c7.968-2.38 15.143-6.606 21.036-12.18l27.911 16.115 15-25.98-27.885-16.1c1.915-8.039 1.918-16.27 0-24.321l27.885-16.1-15-25.98-27.911 16.114c-5.894-5.573-13.068-9.799-21.036-12.179v-32.195h-30v32.195c-7.967 2.381-15.142 6.606-21.036 12.18zm58.536 38.126c0 12.406-10.094 22.5-22.5 22.5s-22.5-10.094-22.5-22.5c0-12.407 10.094-22.5 22.5-22.5 12.407 0 22.5 10.093 22.5 22.5z"/><path id="XMLID_965_" d="m389.527 193.336 27.91 16.114 15-25.98-27.884-16.099c1.915-8.041 1.918-16.271 0-24.322l27.884-16.099-15-25.98-27.91 16.114c-5.894-5.573-13.068-9.799-21.036-12.179v-32.194h-30v32.195c-7.968 2.38-15.142 6.606-21.036 12.179l-27.911-16.114-15 25.98 27.885 16.1c-1.915 8.04-1.918 16.27 0 24.321l-27.885 16.1 15 25.98 27.911-16.114c5.894 5.573 13.068 9.799 21.036 12.179v32.195h30v-32.195c7.968-2.382 15.143-6.607 21.036-12.181zm-58.536-38.125c0-12.407 10.094-22.5 22.5-22.5s22.5 10.093 22.5 22.5c0 12.406-10.094 22.5-22.5 22.5s-22.5-10.094-22.5-22.5z"/><path id="XMLID_966_" d="m508.683 155.211c0-41.454-16.143-80.427-45.455-109.738-60.51-60.509-158.966-60.51-219.475 0-60.648 60.646-60.658 158.82 0 219.475 48.925 48.926 48.932 128.118 0 177.05-48.812 48.811-128.237 48.813-177.05 0-48.925-48.925-48.932-128.118 0-177.049 6.912-6.913 14.447-12.89 22.541-17.92l-5.945 20.738 28.838 8.267 17.661-61.601-50.07-39.995-18.723 23.439 22.499 17.972c-13.952 7.291-26.83 16.704-38.014 27.887-60.648 60.646-60.658 158.82 0 219.476 60.507 60.507 158.964 60.512 219.475 0 60.648-60.646 60.658-158.819 0-219.476-23.646-23.646-36.668-55.085-36.668-88.525s13.022-64.879 36.668-88.524c48.812-48.812 128.237-48.814 177.05 0 56.72 56.719 46.447 152.093-22.541 194.969l5.945-20.738-28.838-8.268-17.661 61.602 50.07 39.996 18.723-23.44-22.499-17.972c49.88-26.067 83.469-77.826 83.469-137.625z"/></g></svg>