<?xml version="1.0" standalone="no"?>
<!DOCTYPE svg PUBLIC "-//W3C//DTD SVG 20010904//EN"
 "http://www.w3.org/TR/2001/REC-SVG-20010904/DTD/svg10.dtd">
<svg version="1.0" xmlns="http://www.w3.org/2000/svg"
 width="900.000000pt" height="900.000000pt" viewBox="0 0 900.000000 900.000000"
 preserveAspectRatio="xMidYMid meet">

<g transform="translate(0.000000,900.000000) scale(0.100000,-0.100000)"
fill="#4e5461" stroke="none">
<path d="M4398 8425 c-74 -19 -93 -29 -523 -270 -198 -111 -551 -309 -785
-440 -234 -131 -510 -286 -615 -344 -104 -59 -455 -255 -779 -437 -648 -362
-662 -372 -719 -491 l-32 -68 -3 -1850 c-2 -2051 -7 -1904 63 -2012 19 -29 58
-70 87 -91 29 -21 280 -166 558 -322 902 -505 1073 -601 1195 -670 160 -90
778 -437 1145 -642 162 -91 313 -174 335 -186 96 -48 218 -51 325 -8 30 12
224 117 430 232 206 116 895 503 1530 859 1335 749 1279 717 1318 750 44 37
97 122 116 184 14 49 16 230 16 1880 0 1932 1 1872 -45 1961 -38 74 -133 151
-300 244 -88 49 -313 175 -500 279 -187 104 -495 276 -685 382 -517 288 -1079
602 -1415 790 -439 246 -435 244 -484 261 -66 22 -166 26 -233 9z m437 -1320
c488 -64 935 -256 1325 -569 111 -89 324 -307 411 -421 82 -108 193 -274 187
-280 -9 -10 -1115 -639 -1128 -642 -10 -3 -27 13 -47 44 -185 285 -527 501
-883 558 -111 18 -350 13 -453 -9 -170 -37 -339 -106 -473 -195 -379 -251
-604 -697 -581 -1150 28 -553 375 -1011 900 -1186 382 -128 795 -69 1147 163
105 70 279 243 340 340 25 39 49 71 54 71 13 1 1146 -622 1146 -630 0 -14
-182 -279 -246 -358 -281 -348 -714 -656 -1139 -809 -684 -247 -1454 -198
-2095 134 -770 400 -1289 1139 -1406 2004 -23 170 -23 501 0 665 69 489 261
937 562 1315 93 117 299 321 414 409 274 213 586 374 890 462 182 52 382 87
590 102 94 8 370 -3 485 -18z"/>
</g>
</svg>
