<?xml version="1.0" standalone="no"?>
<!DOCTYPE svg PUBLIC "-//W3C//DTD SVG 20010904//EN"
 "http://www.w3.org/TR/2001/REC-SVG-20010904/DTD/svg10.dtd">
<svg version="1.0" xmlns="http://www.w3.org/2000/svg"
 width="384.000000pt" height="384.000000pt" viewBox="0 0 384.000000 384.000000"
 preserveAspectRatio="xMidYMid meet">

<g transform="translate(0.000000,384.000000) scale(0.100000,-0.100000)"
fill="#4e5461" stroke="none">
<path d="M1587 3830 c-322 -17 -619 -60 -770 -112 -363 -124 -628 -414 -721
-790 -133 -533 -119 -1689 26 -2111 124 -363 414 -628 790 -721 533 -133 1689
-119 2111 26 363 124 628 414 721 790 133 533 119 1689 -26 2111 -67 196 -197
383 -354 508 -220 175 -435 242 -906 284 -211 18 -656 26 -871 15z m435 -1031
c356 -72 636 -338 719 -683 27 -114 26 -320 -1 -434 -81 -338 -363 -607 -709
-677 -104 -21 -323 -16 -416 10 -111 31 -295 125 -295 151 0 16 290 358 306
362 7 2 23 -3 36 -12 33 -21 138 -46 196 -46 155 0 313 106 385 258 30 62 32
75 32 172 0 97 -2 110 -32 173 -85 179 -271 280 -455 249 -38 -7 -92 -22 -119
-33 -27 -12 -51 -20 -53 -18 -65 71 -296 356 -296 365 0 32 207 130 340 160
69 15 292 17 362 3z"/>
</g>
</svg>
